# AST/ASF file generated using VICON BodyLanguage
# -----------------------------------------------
:version 1.10
:name VICON
:units
  mass 1.0
  length 0.45
  angle deg
:documentation
   .ast/.asf automatically generated from VICON data using
   VICON BodyBuilder and BodyLanguage model FoxedUp or BRILLIANT.MOD
:root
   order TX TY TZ RX RY RZ
   axis XYZ
   position 0 0 0  
   orientation 0 0 0 
:bonedata
  begin
     id 1 
     name lhipjoint
     direction 0.627412 -0.730575 0.26947 
     length 2.49821 
     axis 0 0 0  XYZ
  end
  begin
     id 2 
     name lfemur
     direction 0.34202 -0.939693 0  
     length 6.89165  
     axis 0 0 20  XYZ
    dof rx ry rz
    limits (-160.0 20.0)
           (-70.0 70.0)
           (-60.0 70.0)
  end
  begin
     id 3 
     name ltibia
     direction 0.34202 -0.939693 0   
     length 7.91287   
     axis 0 0 20   XYZ
    dof rx
    limits (-10.0 170.0)
  end
  begin
     id 4 
     name lfoot
     direction 0.0941675 -0.258723 0.96135   
     length 2.16919   
     axis -90 7.62852e-016 20   XYZ
    dof rx rz
    limits (-45.0 90.0)
           (-70.0 20.0)
  end
  begin
     id 5 
     name ltoes
     direction 1.5347e-011 -4.21941e-011 1   
     length 1.08535   
     axis -90 7.62852e-016 20   XYZ
    dof rx
    limits (-90.0 20.0)
  end
  begin
     id 6 
     name rhipjoint
     direction -0.614241 -0.740361 0.27308   
     length 2.46519  
     axis 0 0 0  XYZ 
  end
  begin
     id 7 
     name rfemur
     direction -0.34202 -0.939693 0   
     length 7.27512   
     axis 0 0 -20   XYZ
    dof rx ry rz
    limits (-160.0 20.0)
           (-70.0 70.0)
           (-70.0 60.0)
  end
  begin
     id 8 
     name rtibia
     direction -0.34202 -0.939693 0   
     length 7.89523   
     axis 0 0 -20   XYZ
    dof rx
    limits (-10.0 170.0)
 end
 begin
     id 9 
     name rfoot
     direction -0.0860444 -0.236405 0.967837   
     length 2.29534  
     axis -90 -7.62852e-016 -20   XYZ
    dof rx rz
    limits (-45.0 90.0)
           (-20.0 70.0)
  end
  begin
     id 10 
     name rtoes
     direction -1.53608e-011 -4.21861e-011 1   
     length 1.14915   
     axis -90 -7.62852e-016 -20   XYZ
    dof rx
    limits (-90.0 20.0)
  end
  begin
     id 11 
     name lowerback
     direction -0.00734074 0.997215 -0.0742143   
     length 2.13469   
     axis 0 0 0   XYZ
    dof rx ry rz
    limits (-20.0 45.0)
           (-30.0 30.0)
           (-30.0 30.0)
  end
  begin
     id 12 
     name upperback
     direction 0.0285728 0.99958 -0.00488656   
     length 2.13416   
     axis 0 0 0   XYZ
    dof rx ry rz
    limits (-20.0 45.0)
           (-30.0 30.0)
           (-30.0 30.0)
  end
  begin
     id 13 
     name thorax
     direction 0.0316844 0.999056 0.0297249   
     length 2.14463   
     axis 0 0 0   XYZ
    dof rx ry rz
    limits (-20.0 45.0)
           (-30.0 30.0)
           (-30.0 30.0)
  end
  begin
     id 14 
     name lowerneck
     direction -0.0281545 0.996802 0.0747864   
     length 1.79004   
     axis 0 0 0   XYZ
    dof rx ry rz
    limits (-20.0 45.0)
           (-30.0 30.0)
           (-30.0 30.0)
  end
  begin
     id 15 
     name upperneck
     direction -0.00100185 0.982732 -0.185031   
     length 1.79988   
     axis 0 0 0   XYZ
    dof rx ry rz
    limits (-20.0 45.0)
           (-30.0 30.0)
           (-30.0 30.0)
  end
  begin
     id 16
     name head
     direction 0.00403747 0.997539 -0.0700022  
     length 1.81696  
     axis 0 0 0   XYZ
    dof rx ry rz
    limits (-20.0 45.0)
           (-30.0 30.0)
           (-30.0 30.0)
  end
  begin
     id 17 
     name lclavicle
     direction 0.959882 0.242905 -0.140082  
     length 3.87755  
     axis 0 0 0   XYZ
    dof ry rz
    limits (-20.0 10.0)
           (0.0 20.0)
  end
  begin
     id 18 
     name lhumerus
     direction 1 -4.4895e-011 3.76166e-027   
     length 5.14601   
     axis 180 -30 -90   XYZ
    dof rx ry rz
    limits (-60.0 90.0)
           (-90.0 90.0)
           (-90.0 90.0)
  end
  begin
     id 19
     name lradius
     direction 1 -4.48966e-011 -3.24039e-027   
     length 3.64452   
     axis 180 -30 -90   XYZ
    dof rx
    limits (-10.0 170.0)
  end
  begin
     id 20
     name lwrist
     direction 1 -4.48999e-011 2.57119e-027   
     length 1.82226   
     axis -1.61769e-015 90 90   XYZ
    dof ry
    limits (-180.0 0.0)
 end
  begin
     id 21 
     name lhand
     direction 1 -4.48961e-011 5.13984e-027   
     length 0.56228   
     axis -3.27988e-015 90 90   XYZ
    dof rx rz
    limits (-90.0 90.0)
           (-45.0 45.0)
  end
  begin
     id 22 
     name lfingers
     direction 1 -4.48991e-011 1.02836e-026   
     length 0.453325   
     axis -6.5598e-015 90 90   XYZ
    dof rx
    limits (0.0 90.0)
  end
  begin
     id 23
     name lthumb
     direction 0.707107 -6.34956e-011 0.707107   
     length 0.650886   
     axis -90 45 2.19363e-014   XYZ
    dof rx rz
    limits (-45.0 45.0)
           (-45.0 45.0)
  end
  begin
     id 24 
     name rclavicle
     direction -0.929201 0.345171 -0.132073   
     length 3.55416  
     axis 0 0 0   XYZ 
    dof ry rz
    limits (-10.0 20.0)
           (-20.0 0.0)
  end
  begin
     id 25 
     name rhumerus
     direction -1 -4.48979e-011 4.53734e-027  
     length 5.33913   
     axis 180 30 90   XYZ
    dof rx ry rz
    limits (-90.0 60.0)
           (-90.0 90.0)
           (-90.0 90.0)
  end
  begin
     id 26 
     name rradius
     direction -1 -4.4896e-011 -2.24007e-027   
     length 3.56478   
     axis 180 30 90   XYZ
    dof rx
    limits (-10.0 170.0)
  end
  begin
     id 27 
     name rwrist
     direction -1 -4.48923e-011 2.56866e-027   
     length 1.78239   
     axis -1.61769e-015 -90 -90   XYZ
    dof ry
    limits (-180.0 0.0)
  end
  begin
     id 28
     name rhand
     direction -1 -4.48914e-011 5.13667e-027   
     length 0.857474   
     axis -3.27988e-015 -90 -90   XYZ
    dof rx rz
    limits (-90.0 90.0)
           (-45.0 45.0)
  end
  begin
     id 29
     name rfingers
     direction -1 -4.49112e-011 1.02998e-026   
     length 0.691318   
     axis -6.5598e-015 -90 -90   XYZ
    dof rx
    limits (0.0 90.0)
  end
  begin
     id 30
     name rthumb
     direction -0.707107 -6.34979e-011 0.707107   
     length 0.992598   
     axis -90 -45 -2.19363e-014   XYZ
    dof rx rz
    limits (-45.0 45.0)
           (-45.0 45.0)
  end
:hierarchy
  begin
    root lhipjoint rhipjoint lowerback
    lhipjoint lfemur
    lfemur ltibia
    ltibia lfoot
    lfoot ltoes
    rhipjoint rfemur
    rfemur rtibia
    rtibia rfoot
    rfoot rtoes
    lowerback upperback
    upperback thorax
    thorax lowerneck lclavicle rclavicle
    lowerneck upperneck
    upperneck head
    lclavicle lhumerus
    lhumerus lradius
    lradius lwrist
    lwrist lhand lthumb
    lhand lfingers
    rclavicle rhumerus
    rhumerus rradius
    rradius rwrist
    rwrist rhand rthumb
    rhand rfingers
  end

#!OML:ASF F:\VICON\USERDATA\INSTALL\Justin4\Justin4.ASF
:FULLY-SPECIFIED
:DEGREES
2697
root -8.61029 17.0602 15.1979 -18.1682 -78.1421 24.9336
lowerback 14.4522 -1.2177 -1.33103
upperback 2.86939 -1.81072 2.04634
thorax -4.95237 -0.912343 3.24755
lowerneck -17.9343 2.35457 -3.99166
upperneck 10.9802 3.80199 2.32427
head 6.12737 1.86588 1.77639
rclavicle -2.5842e-014 5.56597e-015
rhumerus -35.506 11.1757 -91.5532
rradius 113.001
rwrist -9.02673
rhand -6.90745 21.7906
rfingers 7.12502
rthumb 18.9598 -367.305
lclavicle -2.5842e-014 5.56597e-015
lhumerus -19.0388 5.12642 82.289
lradius 126.364
lwrist 10.579
lhand -8.37449 8.1561
lfingers 7.12502
lthumb 17.5485 37.3841
rfemur -38.8911 -9.41475 20.4997
rtibia 54.3178
rfoot -15.461 -7.51452
rtoes 29.1521
lfemur -1.54804 -2.17199 -16.2583
ltibia 44.5103
lfoot 2.84992 1.18369
ltoes -22.2185
2698
root -8.701 17.1222 15.1925 -18.7088 -78.8483 25.3203
lowerback 14.7677 -0.304155 -3.5659
upperback 2.56898 -0.847021 4.01167
thorax -5.43907 -0.381612 6.47864
lowerneck -17.6807 2.00251 -5.31947
upperneck 11.5371 3.86745 0.849027
head 6.27297 1.69677 1.52557
rclavicle 4.77083e-015 -3.18055e-015
rhumerus -37.0123 11.8858 -87.3863
rradius 113.736
rwrist -9.39915
rhand -7.862 22.0194
rfingers 7.12502
rthumb 18.0416 -367.164
lclavicle 4.77083e-015 -3.18055e-015
lhumerus -19.5557 5.38816 86.0938
lradius 126.386
lwrist 9.81998
lhand -8.46778 8.04606
lfingers 7.12502
lthumb 17.4587 37.2821
rfemur -37.9356 -8.62704 20.5964
rtibia 53.5927
rfoot -15.5022 -7.06841
rtoes 30.812
lfemur -2.20211 -1.95685 -16.0957
ltibia 45.5826
lfoot 2.43215 0.69579
ltoes -20.7313
2699
root -8.78545 17.1646 15.1931 -19.9455 -79.4611 26.3434
lowerback 14.7709 -0.13655 -3.83819
upperback 2.56742 -0.65675 4.27901
thorax -5.46198 -0.282469 6.89312
lowerneck -17.6805 2.10084 -5.41176
upperneck 11.9156 4.08718 0.469929
head 6.39589 1.7546 1.4459
rclavicle -1.78906e-014 2.54444e-014
rhumerus -37.5046 11.6307 -86.3078
rradius 113.885
rwrist -9.15727
rhand -7.63471 22.1182
rfingers 7.12502
rthumb 18.2603 -367.045
lclavicle -1.78906e-014 2.54444e-014
lhumerus -19.6481 5.70283 86.8844
lradius 126.304
lwrist 9.42637
lhand -8.12764 7.38388
lfingers 7.12502
lthumb 17.786 36.5905
rfemur -37.0365 -8.2032 20.6283
rtibia 52.9258
rfoot -15.4773 -6.70921
rtoes 32.1296
lfemur -2.81868 -1.54643 -16.0619
ltibia 46.6131
lfoot 1.6815 -0.0811365
ltoes -21.6905
2700
root -8.87125 17.2014 15.2054 -21.4 -80.1027 27.5486
lowerback 14.8558 0.100517 -4.45676
upperback 2.5264 -0.416368 4.84292
thorax -5.57807 -0.146761 7.83384
lowerneck -17.572 2.14917 -5.97528
upperneck 12.1101 4.317 0.263182
head 6.42857 1.81359 1.49285
rclavicle 9.14409e-015 -2.8625e-014
rhumerus -37.72 11.3068 -84.8307
rradius 113.968
rwrist -9.27612
rhand -7.17077 21.9803
rfingers 7.12502
rthumb 18.7066 -367.14
lclavicle 9.14409e-015 -2.8625e-014
lhumerus -19.8862 6.19411 88.1505
lradius 126.281
lwrist 9.0717
lhand -9.1645 7.4048
lfingers 7.12502
lthumb 16.7881 36.699
rfemur -36.1935 -8.41558 20.8017
rtibia 52.2697
rfoot -15.0883 -6.39298
rtoes 30.9968
lfemur -3.41757 -1.49859 -16.2152
ltibia 47.5912
lfoot 0.736838 -0.526604
ltoes -23.7261
2701
root -8.96273 17.2495 15.2163 -22.8179 -80.7777 28.8231
lowerback 14.5255 -0.294048 -2.65558
upperback 2.64542 -0.721842 3.44145
thorax -5.26232 -0.345201 5.30215
lowerneck -17.9962 2.38998 -4.59134
upperneck 12.5139 4.20113 1.1289
head 6.63621 1.8967 1.55412
rclavicle 2.38542e-014 -2.54444e-014
rhumerus -37.7856 9.96227 -86.6265
rradius 113.871
rwrist -8.67043
rhand -7.04032 22.005
rfingers 7.12502
rthumb 18.832 -367.103
lclavicle 2.38542e-014 -2.54444e-014
lhumerus -19.8197 5.7229 86.0059
lradius 126.34
lwrist 9.60725
lhand -9.15856 7.16195
lfingers 7.12502
lthumb 16.7938 36.4557
rfemur -35.4063 -8.30862 20.9076
rtibia 51.6304
rfoot -14.7853 -5.95512
rtoes 30.452
lfemur -4.1263 -1.59538 -16.3722
ltibia 48.504
lfoot -0.216158 -0.716714
ltoes -25.7968
